<svg width="100%" viewBox="0 0 1024 576" preserveAspectRatio="none" xmlns="http://www.w3.org/2000/svg">
  <g transform="translate(-15,18) scale(0.82) rotate(22)"><path fill="#F2CC60" opacity="0.12" d="M49.7,-46C63.7,-47.5,73.8,-31.1,69.4,-17.9C65.1,-4.6,46.3,5.6,37.6,22.7C28.9,39.7,30.4,63.5,24,65.8C17.6,68.1,3.4,48.8,-4.9,36C-13.2,23.2,-15.8,16.9,-17.5,11.3C-19.2,5.8,-20.1,1,-19.1,-3.2C-18.2,-7.4,-15.3,-11.1,-11.8,-11.4C-8.2,-11.7,-4.1,-8.7,6.9,-16.9C17.9,-25.1,35.7,-44.4,49.7,-46Z" transform="translate(100 100)"/></g>
  <g transform="translate(887,22) scale(0.82) rotate(-22)"><path fill="#C0392B" opacity="0.12" d="M30,-46.5C32.3,-33.9,23,-18.1,19.8,-7.8C16.5,2.6,19.3,7.7,19.6,15.3C20,23,17.9,33.3,11.3,39.2C4.7,45.2,-6.5,46.8,-15.9,43.5C-25.3,40.2,-33,31.8,-45.9,21C-58.7,10.1,-76.7,-3.3,-70.5,-7.9C-64.3,-12.5,-33.9,-8.3,-18.1,-18.6C-2.3,-28.9,-1.2,-53.8,6.4,-61.3C13.9,-68.9,27.7,-59.2,30,-46.5Z" transform="translate(100 100)"/></g>
  <g transform="translate(92,8) scale(0.68) rotate(-35)"><path fill="#C0392B" opacity="0.11" d="M43.2,-47.7C51.4,-35.1,50,-17.6,42.9,-7.1C35.8,3.3,22.9,6.7,14.8,12C6.7,17.3,3.3,24.7,-7.3,32C-17.9,39.3,-35.9,46.6,-52.2,41.2C-68.5,35.9,-83.3,17.9,-85.4,-2.1C-87.5,-22.2,-77,-44.3,-60.7,-56.8C-44.3,-69.4,-22.2,-72.3,-2.3,-70C17.6,-67.7,35.1,-60.2,43.2,-47.7Z" transform="translate(100 100)"/></g>
  <g transform="translate(820,12) scale(0.68) rotate(35)"><path fill="#6BAE75" opacity="0.11" d="M21.9,-14.8C37.4,-13.1,65.1,-14.7,75.5,-5.9C85.8,2.9,78.8,22.2,66.7,34.1C54.5,46.1,37.4,50.7,21.1,55.8C4.7,60.8,-10.7,66.3,-26.7,64.4C-42.8,62.5,-59.5,53.2,-71.1,38.5C-82.6,23.7,-88.9,3.5,-80.6,-9.1C-72.3,-21.6,-49.3,-26.5,-33.4,-28.1C-17.5,-29.8,-8.8,-28.2,-2.8,-24.9C3.2,-21.6,6.4,-16.5,21.9,-14.8Z" transform="translate(100 100)"/></g>
  <g transform="translate(188,28) scale(0.75) rotate(40)"><path fill="#6BAE75" opacity="0.11" d="M29.3,-35.9C39.8,-26,51.6,-18.6,61.2,-4.8C70.8,9.1,78.3,29.3,71.9,42.7C65.6,56.1,45.4,62.7,29,60.4C12.5,58,-0.2,46.8,-9.3,38.1C-18.5,29.4,-24,23.2,-30.7,15.7C-37.3,8.3,-45.1,-0.5,-50.1,-15.1C-55,-29.8,-57.2,-50.2,-48.3,-60.4C-39.5,-70.7,-19.8,-70.6,-5.2,-64.4C9.4,-58.2,18.7,-45.9,29.3,-35.9Z" transform="translate(100 100)"/></g>
  <g transform="translate(728,32) scale(0.75) rotate(-40)"><path fill="#5B8FC9" opacity="0.11" d="M38.4,-47.2C47.1,-38.5,49.5,-23.8,51.6,-9.5C53.7,4.9,55.3,18.9,49.6,28.6C44,38.3,30.9,43.6,18.1,47.2C5.3,50.7,-7.2,52.4,-19.8,49.8C-32.4,47.2,-45.1,40.3,-52,29.5C-59,18.6,-60.2,3.9,-59.9,-12.8C-59.6,-29.4,-57.7,-48,-47.5,-56.4C-37.2,-64.8,-18.6,-63.1,-1.9,-60.9C14.9,-58.7,29.7,-55.9,38.4,-47.2Z" transform="translate(100 100)"/></g>
  <g transform="translate(28,102) scale(0.9) rotate(-18)"><path fill="#5B8FC9" opacity="0.12" d="M50.1,-58.8C59.3,-52.1,57.1,-30.9,57.3,-12.7C57.4,5.5,59.8,20.7,52.1,26.3C44.4,32,26.6,28.1,11.4,35.5C-3.8,42.9,-16.5,61.6,-24.2,61.1C-31.9,60.6,-34.5,41.1,-33.1,27.1C-31.8,13.1,-26.4,4.7,-30.2,-10.8C-34,-26.3,-46.9,-48.8,-43.4,-56.6C-39.9,-64.4,-20,-57.4,0.3,-57.7C20.5,-58,41,-65.6,50.1,-58.8Z" transform="translate(100 100)"/></g>
  <g transform="translate(892,108) scale(0.9) rotate(18)"><path fill="#F2CC60" opacity="0.12" d="M27,-31.2C42.7,-19,68.5,-17.8,79.5,-6.5C90.5,4.9,86.7,26.4,73.7,36.5C60.6,46.5,37.4,50.7,21.1,55.8C4.7,60.8,-10.7,66.3,-22.3,56.2C-33.9,54.1,-44,42.7,-42.7,31.3C-41.4,19.9,-28.7,8.5,-27.6,-6.1C-26.5,-20.8,-37,-38.7,-34.4,-53.3C-31.7,-67.8,-15.8,-79,-5.1,-72.9C5.6,-66.8,11.3,-43.5,27,-31.2Z" transform="translate(100 100)"/></g>
  <g transform="translate(162,108) scale(0.6) rotate(28)"><path fill="#F2CC60" opacity="0.10" d="M20.3,-25.8C22.5,-22.4,17.9,-12.4,25.2,-0.1C32.6,12.2,52,26.7,54.9,41.2C57.8,55.6,44.3,70.1,29.5,71.1C14.8,72.1,-1.2,59.8,-18.3,52.6C-35.4,45.4,-53.6,43.4,-59.7,34C-65.9,24.5,-59.9,7.5,-58.3,-11.8C-56.7,-31,-59.4,-52.5,-50.4,-54.8C-41.4,-57,-20.7,-40,-5.8,-33.1C9.1,-26.1,18.1,-29.3,20.3,-25.8Z" transform="translate(100 100)"/></g>
  <g transform="translate(752,102) scale(0.6) rotate(-28)"><path fill="#C0392B" opacity="0.10" d="M43.2,-47.7C51.4,-35.1,50,-17.6,42.9,-7.1C35.8,3.3,22.9,6.7,14.8,12C6.7,17.3,3.3,24.7,-7.3,32C-17.9,39.3,-35.9,46.6,-52.2,41.2C-68.5,35.9,-83.3,17.9,-85.4,-2.1C-87.5,-22.2,-77,-44.3,-60.7,-56.8C-44.3,-69.4,-22.2,-72.3,-2.3,-70C17.6,-67.7,35.1,-60.2,43.2,-47.7Z" transform="translate(100 100)"/></g>
  <g transform="translate(-22,192) scale(0.78) rotate(-28)"><path fill="#C0392B" opacity="0.12" d="M21.9,-31.5C31.5,-18,44.6,-14.1,52.1,-4.3C59.6,5.5,61.6,21.1,57,36.5C52.4,51.9,41.1,67,26,73.4C10.9,79.7,-8.1,77.2,-27.4,71.7C-46.6,66.2,-66.1,57.8,-73.7,43.2C-81.3,28.6,-77.1,7.9,-67.4,-5.8C-57.8,-19.5,-42.7,-26.2,-30.5,-39.2C-18.4,-52.3,-9.2,-71.7,-1.5,-69.9C6.1,-68.1,12.3,-45,21.9,-31.5Z" transform="translate(100 100)"/></g>
  <g transform="translate(838,188) scale(0.78) rotate(28)"><path fill="#6BAE75" opacity="0.12" d="M42.7,-43.9C54.3,-41.1,61.9,-26.7,64.3,-11.6C66.6,3.5,63.6,19.2,52.9,23.8C42.2,28.3,23.8,21.6,9.4,27.6C-5,33.6,-15.4,52.3,-28.5,56.8C-41.5,61.3,-57.2,51.7,-67.6,37.3C-78,22.9,-83.1,3.7,-78,-11.7C-72.8,-27.1,-57.5,-38.7,-42.8,-40.9C-28.1,-43.2,-14,-36.2,0.7,-37.1C15.5,-38,31.1,-46.8,42.7,-43.9Z" transform="translate(100 100)"/></g>
  <g transform="translate(125,188) scale(0.85) rotate(15)"><path fill="#6BAE75" opacity="0.11" d="M49.7,-46C63.7,-47.5,73.8,-31.1,69.4,-17.9C65.1,-4.6,46.3,5.6,37.6,22.7C28.9,39.7,30.4,63.5,24,65.8C17.6,68.1,3.4,48.8,-4.9,36C-13.2,23.2,-15.8,16.9,-17.5,11.3C-19.2,5.8,-20.1,1,-19.1,-3.2C-18.2,-7.4,-15.3,-11.1,-11.8,-11.4C-8.2,-11.7,-4.1,-8.7,6.9,-16.9C17.9,-25.1,35.7,-44.4,49.7,-46Z" transform="translate(100 100)"/></g>
  <g transform="translate(782,182) scale(0.85) rotate(-15)"><path fill="#5B8FC9" opacity="0.11" d="M21.6,-33.6C32.1,-31.3,47.7,-33.9,48.1,-29.1C48.5,-24.4,33.8,-12.2,37.6,2.2C41.5,16.6,64,33.3,67.2,44.3C70.4,55.3,54.3,60.7,39.9,56.4C25.5,52.1,12.7,37.9,3.7,31.5C-5.3,25.1,-10.7,26.4,-22.4,29.2C-34.2,32.1,-52.4,36.4,-59.1,31.8C-65.7,27.2,-60.9,13.6,-57.4,2C-54,-9.6,-51.9,-19.1,-46.1,-25.3C-40.3,-31.5,-30.8,-34.2,-22.5,-37.8C-14.2,-41.4,-7.1,-45.8,-0.8,-44.4C5.5,-43,11,-35.8,21.6,-33.6Z" transform="translate(100 100)"/></g>
  <g transform="translate(222,162) scale(0.55) rotate(-42)"><path fill="#5B8FC9" opacity="0.10" d="M18.6,-6.5C25.9,16.3,34.8,38.2,23.3,51C11.8,63.8,-20,67.6,-32.6,55.8C-45.3,44.1,-38.7,16.8,-30,-7.9C-21.4,-32.7,-10.7,-54.9,-2.5,-54.1C5.7,-53.2,11.3,-29.4,18.6,-6.5Z" transform="translate(100 100)"/></g>
  <g transform="translate(692,168) scale(0.55) rotate(42)"><path fill="#F2CC60" opacity="0.10" d="M34.1,-17.4C48.7,-8.8,68.4,5.7,65.8,14.3C63.3,23,38.6,26,18.6,33.7C-1.4,41.5,-16.8,54.1,-26.3,50.9C-35.9,47.7,-39.7,28.8,-38.1,14.8C-36.5,0.7,-29.4,-8.6,-22.2,-15.5C-14.9,-22.5,-7.5,-27.1,1.1,-28C9.7,-28.9,19.4,-26,34.1,-17.4Z" transform="translate(100 100)"/></g>
  <g transform="translate(38,272) scale(0.92) rotate(20)"><path fill="#F2CC60" opacity="0.11" d="M38.9,-55.6C44.6,-41.5,39.6,-23.8,36.7,-10.8C33.8,2.2,33.1,10.5,31.3,22.1C29.4,33.8,26.4,48.9,17.6,54.9C8.9,60.9,-5.5,57.8,-17.6,51.8C-29.7,45.9,-39.4,37.2,-45,26.5C-50.6,15.8,-52,3.2,-45.3,-3.3C-38.6,-9.9,-23.9,-10.4,-15,-23.9C-6.1,-37.5,-3,-64.1,6.8,-72.2C16.6,-80.2,33.1,-69.7,38.9,-55.6Z" transform="translate(100 100)"/></g>
  <g transform="translate(868,278) scale(0.92) rotate(-20)"><path fill="#C0392B" opacity="0.11" d="M20.3,-25.8C22.5,-22.4,17.9,-12.4,25.2,-0.1C32.6,12.2,52,26.7,54.9,41.2C57.8,55.6,44.3,70.1,29.5,71.1C14.8,72.1,-1.2,59.8,-18.3,52.6C-35.4,45.4,-53.6,43.4,-59.7,34C-65.9,24.5,-59.9,7.5,-58.3,-11.8C-56.7,-31,-59.4,-52.5,-50.4,-54.8C-41.4,-57,-20.7,-40,-5.8,-33.1C9.1,-26.1,18.1,-29.3,20.3,-25.8Z" transform="translate(100 100)"/></g>
  <g transform="translate(185,268) scale(0.65) rotate(-22)"><path fill="#C0392B" opacity="0.10" d="M42.5,-55.3C52.6,-42.2,56.5,-26.4,52.8,-14.2C49.1,-2,37.7,6.6,31.1,17.9C24.5,29.2,22.6,43.1,13.8,52.7C5,62.4,-10.8,67.7,-25.8,64.9C-40.7,62,-54.9,50.9,-65.3,36.1C-75.6,21.3,-82.3,2.8,-73,-6.5C-63.8,-15.9,-38.8,-16.2,-24,-28.4C-9.2,-40.7,-4.6,-64.9,5.8,-71.9C16.2,-78.8,32.5,-68.4,42.5,-55.3Z" transform="translate(100 100)"/></g>
  <g transform="translate(718,272) scale(0.65) rotate(22)"><path fill="#6BAE75" opacity="0.10" d="M27.8,-35.5C31.9,-29.7,28.3,-17,26.1,-7.8C23.8,1.3,23,7.1,20.5,12.3C18,17.5,13.9,22.3,9.4,22.5C4.9,22.8,-0.1,18.4,-7.8,17.4C-15.5,16.3,-25.9,18.6,-34.8,14.6C-43.8,10.5,-51.4,0,-51.4,-10.6C-51.4,-21.3,-43.7,-32.2,-33.9,-37C-24.1,-41.8,-12,-40.6,-0.1,-40.5C11.8,-40.4,23.7,-41.4,27.8,-35.5Z" transform="translate(100 100)"/></g>
  <g transform="translate(-12,362) scale(0.8) rotate(33)"><path fill="#6BAE75" opacity="0.12" d="M21.6,-22.3C30.4,-18.4,41.5,-13.8,50,-3.3C58.5,7.3,64.2,23.8,56.5,28.3C48.8,32.7,27.5,24.9,11.9,28.9C-3.6,32.9,-13.5,48.6,-26.2,52.5C-39,56.4,-54.5,48.4,-64.8,35.2C-75.2,21.9,-80.4,3.4,-74.7,-10.4C-68.9,-24.2,-52.3,-33.3,-38,-36.3C-23.7,-39.2,-11.9,-36.1,-2.7,-32.8C6.4,-29.6,12.8,-26.2,21.6,-22.3Z" transform="translate(100 100)"/></g>
  <g transform="translate(824,358) scale(0.8) rotate(-33)"><path fill="#5B8FC9" opacity="0.12" d="M50.1,-58.8C59.3,-52.1,57.1,-30.9,57.3,-12.7C57.4,5.5,59.8,20.7,52.1,26.3C44.4,32,26.6,28.1,11.4,35.5C-3.8,42.9,-16.5,61.6,-24.2,61.1C-31.9,60.6,-34.5,41.1,-33.1,27.1C-31.8,13.1,-26.4,4.7,-30.2,-10.8C-34,-26.3,-46.9,-48.8,-43.4,-56.6C-39.9,-64.4,-20,-57.4,0.3,-57.7C20.5,-58,41,-65.6,50.1,-58.8Z" transform="translate(100 100)"/></g>
  <g transform="translate(155,358) scale(0.72) rotate(-15)"><path fill="#5B8FC9" opacity="0.11" d="M32.9,-37C43.5,-22.3,53.5,-11.1,54.3,0.8C55.1,12.7,46.6,25.4,36,34.2C25.4,42.9,12.7,47.8,-0.2,48C-13.1,48.2,-26.2,43.7,-32.5,35C-38.9,26.2,-38.5,13.1,-33.9,4.6C-29.2,-3.9,-20.4,-7.7,-14.1,-22.5C-7.7,-37.2,-3.9,-62.8,3.6,-66.5C11.1,-70.1,22.3,-51.8,32.9,-37Z" transform="translate(100 100)"/></g>
  <g transform="translate(758,362) scale(0.72) rotate(15)"><path fill="#F2CC60" opacity="0.11" d="M43.1,-50.8C53.5,-42.7,57.8,-26.8,61.9,-10C66,6.9,69.9,24.8,63.6,37.6C57.3,50.5,40.7,58.4,27.1,54.9C13.5,51.4,2.8,36.4,-8.4,29.5C-19.7,22.7,-31.5,23.9,-36,19.3C-40.5,14.7,-37.6,4.3,-38.5,-9.6C-39.4,-23.4,-44,-40.6,-38.2,-49.6C-32.4,-58.5,-16.2,-59.1,0.1,-59.2C16.4,-59.3,32.8,-58.9,43.1,-50.8Z" transform="translate(100 100)"/></g>
  <g transform="translate(58,458) scale(0.85) rotate(40)"><path fill="#F2CC60" opacity="0.12" d="M21.9,-31.5C31.5,-18,44.6,-14.1,52.1,-4.3C59.6,5.5,61.6,21.1,57,36.5C52.4,51.9,41.1,67,26,73.4C10.9,79.7,-8.1,77.2,-27.4,71.7C-46.6,66.2,-66.1,57.8,-73.7,43.2C-81.3,28.6,-77.1,7.9,-67.4,-5.8C-57.8,-19.5,-42.7,-26.2,-30.5,-39.2C-18.4,-52.3,-9.2,-71.7,-1.5,-69.9C6.1,-68.1,12.3,-45,21.9,-31.5Z" transform="translate(100 100)"/></g>
  <g transform="translate(848,452) scale(0.85) rotate(-40)"><path fill="#C0392B" opacity="0.12" d="M49.7,-46C63.7,-47.5,73.8,-31.1,69.4,-17.9C65.1,-4.6,46.3,5.6,37.6,22.7C28.9,39.7,30.4,63.5,24,65.8C17.6,68.1,3.4,48.8,-4.9,36C-13.2,23.2,-15.8,16.9,-17.5,11.3C-19.2,5.8,-20.1,1,-19.1,-3.2C-18.2,-7.4,-15.3,-11.1,-11.8,-11.4C-8.2,-11.7,-4.1,-8.7,6.9,-16.9C17.9,-25.1,35.7,-44.4,49.7,-46Z" transform="translate(100 100)"/></g>
  <g transform="translate(198,448) scale(0.62) rotate(-30)"><path fill="#C0392B" opacity="0.11" d="M19.5,-4.5C29.9,6.8,46.3,21.5,44,38.3C41.7,55.1,20.9,74.1,2.2,72.9C-16.5,71.6,-33.1,50.1,-45.5,27.5C-57.9,4.8,-66.1,-19.1,-57.8,-29.2C-49.6,-39.3,-24.8,-35.7,-10.1,-29.8C4.5,-24,9,-15.9,19.5,-4.5Z" transform="translate(100 100)"/></g>
  <g transform="translate(708,442) scale(0.62) rotate(30)"><path fill="#6BAE75" opacity="0.11" d="M38.9,-55.6C44.6,-41.5,39.6,-23.8,36.7,-10.8C33.8,2.2,33.1,10.5,31.3,22.1C29.4,33.8,26.4,48.9,17.6,54.9C8.9,60.9,-5.5,57.8,-17.6,51.8C-29.7,45.9,-39.4,37.2,-45,26.5C-50.6,15.8,-52,3.2,-45.3,-3.3C-38.6,-9.9,-23.9,-10.4,-15,-23.9C-6.1,-37.5,-3,-64.1,6.8,-72.2C16.6,-80.2,33.1,-69.7,38.9,-55.6Z" transform="translate(100 100)"/></g>
  <g transform="translate(-18,512) scale(0.75) rotate(18)"><path fill="#6BAE75" opacity="0.10" d="M29.3,-35.9C39.8,-26,51.6,-18.6,61.2,-4.8C70.8,9.1,78.3,29.3,71.9,42.7C65.6,56.1,45.4,62.7,29,60.4C12.5,58,-0.2,46.8,-9.3,38.1C-18.5,29.4,-24,23.2,-30.7,15.7C-37.3,8.3,-45.1,-0.5,-50.1,-15.1C-55,-29.8,-57.2,-50.2,-48.3,-60.4C-39.5,-70.7,-19.8,-70.6,-5.2,-64.4C9.4,-58.2,18.7,-45.9,29.3,-35.9Z" transform="translate(100 100)"/></g>
  <g transform="translate(808,518) scale(0.75) rotate(-18)"><path fill="#5B8FC9" opacity="0.10" d="M21.6,-22.3C30.4,-18.4,41.5,-13.8,50,-3.3C58.5,7.3,64.2,23.8,56.5,28.3C48.8,32.7,27.5,24.9,11.9,28.9C-3.6,32.9,-13.5,48.6,-26.2,52.5C-39,56.4,-54.5,48.4,-64.8,35.2C-75.2,21.9,-80.4,3.4,-74.7,-10.4C-68.9,-24.2,-52.3,-33.3,-38,-36.3C-23.7,-39.2,-11.9,-36.1,-2.7,-32.8C6.4,-29.6,12.8,-26.2,21.6,-22.3Z" transform="translate(100 100)"/></g>
</svg>